<svg xmlns="http://www.w3.org/2000/svg" width="999.431" height="658.5" viewBox="0 0 999.431 658.5">
  <line id="Line_10" data-name="Line 10" x2="211.117" transform="translate(708.049 402.702)" fill="none" stroke="#c2cae3" stroke-width="4" />
  <line id="Line_2" data-name="Line 2" x2="180.09" transform="translate(788.314 111.163)" fill="none" stroke="#c2cae3" stroke-width="4" />
  <line id="Line_4" data-name="Line 4" x2="211.117" transform="translate(788.314 172.609)" fill="none" stroke="#c2cae3" stroke-width="4" />
  <line id="Line_8" data-name="Line 8" x2="45.866" transform="translate(788.314 341.256)" fill="none" stroke="#c2cae3" stroke-width="4" />
  <line id="Line_9" data-name="Line 9" y2="32.03" transform="translate(774.149 370.672)" fill="none" stroke="#c2cae3" stroke-width="4" />
  <line id="Line_11" data-name="Line 11" y2="61.445" transform="translate(863.183 402.702)" fill="none" stroke="#c2cae3" stroke-width="4" />
  <line id="Line_12" data-name="Line 12" x2="184.137" transform="translate(682.418 464.147)" fill="none" stroke="#c2cae3" stroke-width="4" />
  <line id="Line_13" data-name="Line 13" x2="180.09" transform="translate(225.11 63.445) rotate(180)" fill="none" stroke="#c2cae3" stroke-width="4" />
  <line id="Line_14" data-name="Line 14" x2="211.117" transform="translate(225.11 126.198) rotate(180)" fill="none" stroke="#c2cae3" stroke-width="4" />
  <line id="Line_15" data-name="Line 15" x2="184.137" transform="translate(225.11 186.336) rotate(180)" fill="none" stroke="#c2cae3" stroke-width="4" />
  <line id="Line_16" data-name="Line 16" x2="180.09" transform="translate(306.049 2) rotate(180)" fill="none" stroke="#c2cae3" stroke-width="4" />
  <line id="Line_17" data-name="Line 17" y2="61.445" transform="translate(206.224 2)" fill="none" stroke="#c2cae3" stroke-width="4" />
  <line id="Line_18" data-name="Line 18" y2="62.753" transform="translate(159.684 63.445)" fill="none" stroke="#c2cae3" stroke-width="4" />
  <line id="Line_19" data-name="Line 19" y2="60.465" transform="translate(40.972 126.198)" fill="none" stroke="#c2cae3" stroke-width="4" />
  <line id="Line_20" data-name="Line 20" y2="60.138" transform="translate(190.71 126.198)" fill="none" stroke="#c2cae3" stroke-width="4" />
  <g id="Group_3" data-name="Group 3" transform="translate(224.778 29.908)">
    <rect id="Rectangle_1" data-name="Rectangle 1" width="564" height="341" transform="translate(-0.278 -0.408)" fill="#fff" stroke="#7581ce" stroke-width="6" />
    <g id="Warning" transform="translate(189.722 104.592)">
      <g id="Polygon_1" data-name="Polygon 1" transform="translate(0)" fill="#fff">
        <path d="M 158.5803833007813 163 L 26.41961669921875 163 C 18.03520584106445 163 10.55814743041992 158.6470336914063 6.41847038269043 151.3558349609375 C 2.278823614120483 144.0645904541016 2.372588157653809 135.4132690429688 6.669235229492188 128.2134704589844 L 72.74958801269531 17.48420906066895 C 76.93984985351563 10.46268081665039 84.32317352294922 6.270709991455078 92.5 6.270709991455078 C 100.6767959594727 6.270709991455078 108.0601196289063 10.46268081665039 112.2503814697266 17.48420906066895 L 178.3307647705078 128.2135009765625 C 182.6274108886719 135.4132690429688 182.7211761474609 144.0645904541016 178.5815277099609 151.3558349609375 C 174.4418487548828 158.6470336914063 166.9647979736328 163 158.5803833007813 163 Z" stroke="none" />
        <path d="M 92.49998474121094 14.27072143554688 C 87.514404296875 14.27072143554688 82.52882385253906 16.70841979980469 79.61930847167969 21.58384704589844 L 13.53892517089844 132.3131103515625 C 7.572113037109375 142.3115844726563 14.77610778808594 155 26.41961669921875 155 L 158.5803833007813 155 C 170.223876953125 155 177.4278869628906 142.3115844726563 171.4610443115234 132.3131103515625 L 105.3806915283203 21.58384704589844 C 102.4711532592773 16.70841979980469 97.48556518554688 14.27072143554688 92.49998474121094 14.27072143554688 M 92.5 -1.72930908203125 C 103.520881652832 -1.72930908203125 113.4723052978516 3.920730590820313 119.1200790405273 13.38450622558594 L 185.2004241943359 124.1138153076172 C 190.9916076660156 133.8178405761719 191.1179656982422 145.4783935546875 185.5384216308594 155.3056945800781 C 179.9588775634766 165.1329650878906 169.8811187744141 171 158.5803833007813 171 L 26.41961669921875 171 C 15.11888122558594 171 5.041122436523438 165.1329650878906 -0.538421630859375 155.3056945800781 C -6.117965698242188 145.4784240722656 -5.991622924804688 133.8179321289063 -0.20050048828125 124.1138153076172 L 65.87992095947266 13.38453674316406 C 71.52758026123047 3.920730590820313 81.47904205322266 -1.72930908203125 92.5 -1.72930908203125 Z" stroke="none" fill="#3e4166" />
      </g>
      <path id="Polygon_3" data-name="Polygon 3" d="M8.5,0,17,67H0Z" transform="translate(101 118) rotate(180)" fill="#3e4166" />
      <circle id="Ellipse_1" data-name="Ellipse 1" cx="8.5" cy="8.5" r="8.5" transform="translate(84 42)" fill="#3e4166" />
      <ellipse id="Ellipse_2" data-name="Ellipse 2" cx="6.5" cy="6" rx="6.5" ry="6" transform="translate(86 122)" fill="#3e4166" />
    </g>
    <line id="Line_1" data-name="Line 1" x2="563.454" transform="translate(0.292 42.832)" fill="none" stroke="#7581ce" stroke-width="6" />
    <g id="Group_1" data-name="Group 1" transform="translate(62.104 8.647)">
      <g id="Rectangle_2" data-name="Rectangle 2" transform="translate(-0.382 -0.055)" fill="#fff" stroke="#8d9dd5" stroke-width="3">
        <rect width="440" height="26" rx="13" stroke="none" />
        <rect x="1.5" y="1.5" width="437" height="23" rx="11.5" fill="none" />
      </g>
    </g>
    <text id="www." transform="translate(107.722 0.592)" fill="#7581ce" font-size="26" font-family="SegoeUI, Segoe UI" letter-spacing="0.042em"><tspan x="0" y="28">www.</tspan></text>
  </g>
  <line id="Line_21" data-name="Line 21" x1="957" transform="translate(0 602.605)" fill="none" stroke="#e2e4ea" stroke-width="4" />
  <g id="Group_2" data-name="Group 2" transform="translate(85.495 290.368)">
    <g id="Head_Front_Curly" data-name="Head/Front/Curly" transform="matrix(0.996, -0.087, 0.087, 0.996, 53.861, -6.998)">
      <g id="Head" transform="translate(24 17)">
        <path id="Head-2" data-name="Head" d="M0,73,9.019,35.431C4,29.858.5,22.89,1.049,15.026c1.49-21.4,31.048-16.693,36.8-5.892s5.067,38.2-2.364,40.13c-2.535.658-7.519-.626-12.928-3.453L26.854,73Z" transform="translate(0 0)" fill="#a8afda" />
      </g>
      <path id="hair" d="M72.776,11.16A5.191,5.191,0,0,0,69.14,7.474,4.788,4.788,0,0,0,67.8,7.341c-.161.006-.206.053-.282-.06a1.48,1.48,0,0,1-.08-.386,7.282,7.282,0,0,0-.272-.9A7.354,7.354,0,0,0,65.4,3.357,8.929,8.929,0,0,0,60.032.82a7.819,7.819,0,0,0-3.224.44,12.767,12.767,0,0,0-1.565.669c-.153.077-.648.452-.8.427-.169-.027-.51-.447-.647-.553A9.478,9.478,0,0,0,47.872,0c-2.392.018-4.7.137-6.69,1.6a13.38,13.38,0,0,0-1.207,1c-.2.187-.4.382-.583.584q-.169.183-.327.375c-.179.218-.15.289-.4.137a4.973,4.973,0,0,0-3.193-.718,7.146,7.146,0,0,0-1.928.545c-.209.09-.694.447-.917.45s-.7-.328-.927-.412A7.6,7.6,0,0,0,27.846,3.2a9.948,9.948,0,0,0-3.777,1.485,5.078,5.078,0,0,0-1.4,1.273c-.165.227-.313.468-.5.678-.109.123-.326.25-.384.406a8.3,8.3,0,0,0-1.6-.707,3.944,3.944,0,0,0-2.253.086,8.958,8.958,0,0,0-3.552,2.524,10.086,10.086,0,0,0-1.315,1.766q-.268.455-.492.934a3.474,3.474,0,0,1-.216.487c-.123.179-.206.183-.429.261a6.93,6.93,0,0,0-2.951,1.976,6.8,6.8,0,0,0-1.528,3.24,1.651,1.651,0,0,1-.061.4c-.056.052-.284.029-.37.039a7.787,7.787,0,0,0-.887.156,7.321,7.321,0,0,0-1.559.561A8.148,8.148,0,0,0,.576,23.536a9.676,9.676,0,0,0,.151,6.624,6.472,6.472,0,0,0,.492.97c.118.189.156.19.079.388-.085.221-.241.436-.342.651A9.352,9.352,0,0,0,.25,34.385a10.388,10.388,0,0,0-.122,3.829,5.527,5.527,0,0,0,.591,1.68,4.819,4.819,0,0,0,.518.752c.1.121.21.237.323.348a2.155,2.155,0,0,1,.2.189c.134.172.162.031.093.284a11.335,11.335,0,0,1-.451,1.048c-.138.355-.264.715-.378,1.078a15.906,15.906,0,0,0-.55,2.247,7.056,7.056,0,0,0,.5,4.365,4.367,4.367,0,0,0,1.235,1.47,4.584,4.584,0,0,0,.811.493c.147.07.335.1.4.242s-.035.457-.059.628a10.466,10.466,0,0,0,.123,4.509,6.23,6.23,0,0,0,2.469,3.315,7.683,7.683,0,0,0,7.68.218A8.063,8.063,0,0,0,15.353,59.9c1.315,1.771,4.022,1.714,5.944,1.21a8.538,8.538,0,0,0,5.424-4.482c1.514,1.843,4.691,1.245,5.741-.754a4.784,4.784,0,0,0,.484-1.574c.039-.287.014-.576.044-.861a4.449,4.449,0,0,1,.419-1.066,5.886,5.886,0,0,0,.447-2.125,10.789,10.789,0,0,0-.082-1.141,3.921,3.921,0,0,1,.116-1,4.585,4.585,0,0,1-1.941-.243,3.833,3.833,0,0,1-1.5-1.055,8.756,8.756,0,0,1-1.888-3.529c-.854-2.8-.5-6.149,2.308-7.683,1.31-.715,5.234-.712,6.794-.359,1.64.371,3.5,3.991,3.591,4.331.057.211.028.471.222.611.425.308,1.126-.227,1.44-.491a5.678,5.678,0,0,0,1.261-1.678,20.755,20.755,0,0,0,1.73-4.243c.32-1.131.524-2.3.942-3.4a5.2,5.2,0,0,1,2.091-2.7,18.409,18.409,0,0,1,3.6-1.456,8.928,8.928,0,0,0,3.327-1.828,4.6,4.6,0,0,0,.571-.636c.131-.183.26-.532.459-.648.31-.18.761.288,1.029.458a11.891,11.891,0,0,1,3.311,3.286,20.447,20.447,0,0,1,2.2,3.912,11.313,11.313,0,0,0,1.478,3.263c.343.385,2.894.618,3.72.282a4.7,4.7,0,0,0,2.029-1.756,2.728,2.728,0,0,0,.23-1.788c-.071-.361-.217-.7-.3-1.052a3.279,3.279,0,0,0-.273-.851,2.1,2.1,0,0,0-1.309-1.043,6.147,6.147,0,0,0,1.414-1.917,8.229,8.229,0,0,0,.732-2.5,3.033,3.033,0,0,0-.405-1.946,5.124,5.124,0,0,0-1.661-1.379A10.807,10.807,0,0,0,71.4,17.552,7.864,7.864,0,0,0,72.776,11.16Z" transform="translate(0 0)" fill="#191847" />
    </g>
    <g id="Body_Trench_Coat" data-name="Body/Trench Coat" transform="translate(0 8.709)">
      <path id="Skin" d="M22.54,149.627c-.891-1.636-1.921-3.273-5.319-2.643-6.084,1.129-11.372,4.572-16.716-.732-.657-.652-1.062-2.6,1.338-3.466,5.979-2.149,14.863-6.295,16.358-8.008,3.057-3.5,22.689-42.11,22.689-42.11l12.423,3.086s-24.841,40.579-26.57,42.891c-2.592,3.467-.689,10.173-.04,13.687a4.9,4.9,0,0,1-.835.075C23.952,152.4,23.3,151.015,22.54,149.627ZM153.9,26.409l24.068-14.383A60.09,60.09,0,0,1,189.544.364c1.2-.555,3.319-.958,1.511,2.583s-3.543,7.345-2.464,8.357a2.6,2.6,0,0,0,2.02.318c1.008-.08,2.1-.161,2.834.79q1.315,1.7-12.715,6.2L163.6,35.5Z" transform="matrix(0.998, -0.07, 0.07, 0.998, 0.35, 13.494)" fill="#a8afda" />
      <path id="Back_Arm" data-name="Back Arm" d="M62.412,84.7c-1.586-.084-3.19-.63-3.173-1.525C35.3,71.714,13.463,62.017,3.026,42.658-.756,35.643.4,11.886,0,3.239L8.22,0C21.013,25.5,38.743,49.879,66.082,70.092q.379-.354.778-.7a3.064,3.064,0,0,1,4.4.383,3.285,3.285,0,0,1-.339,4.538l-.2.176L64.985,85.949Q63.7,85.32,62.412,84.7Z" transform="translate(79.943 83.085) rotate(-83)" fill="#7582b3" />
      <path id="Shirt" d="M0,77.852s33.761,3.594,53.147,0c1.6-.3,1.531-6.986.788-8.813C42.372,40.588,34.765,19.761,34.765,0c-3.183,1.611-11.14.483-11.14.483C9.369,20.847,2.815,44.213,0,77.852Z" transform="translate(75.14 51.969)" fill="#c6d3ff" />
      <path id="Coat_Front" data-name="Coat Front" d="M43.489,82.468a2.887,2.887,0,0,1-.974-2.711l.438-2.406a3,3,0,0,1,2.769-2.423q.354-1.54.609-3.058c1.354-8.124-.729-16.1-.9-23.94-9.588,8.278-21.2,22.712-30.989,47.73L.919,91.8q.775-2.791,1.623-5.493C.977,85.474-.868,81.5.45,80.841a16.147,16.147,0,0,1,4.429-1.464C24.774,24.272,65.577,0,65.577,0h8.142c-2.4,30.723,30.714,97.8,19.217,155.081-9,1.948-19.629.5-31.136-.939-15.665-1.965-32.959-3.93-49.984,2.661C12.914,133.757,34.884,106.687,43.489,82.468Z" transform="translate(27.444 50.788)" fill="#7c8abd" />
      <path id="Shade_Lapel" data-name="Shade Lapel" d="M6.6,0,2.909,11.008l7.438,8.252L3.625,25.745,19.887,52.73,0,25.8,6.6,19.26,0,11.967Z" transform="translate(89.375 51.482)" fill="rgba(0,0,0,0.1)" />
      <path id="Buttons" d="M4.286,34.26a2.8,2.8,0,0,1,2.857-2.741,2.743,2.743,0,1,1,0,5.482A2.8,2.8,0,0,1,4.286,34.26ZM3.572,18.5a2.8,2.8,0,0,1,2.857-2.74,2.743,2.743,0,1,1,0,5.481A2.8,2.8,0,0,1,3.572,18.5ZM0,2.74A2.8,2.8,0,0,1,2.857,0,2.8,2.8,0,0,1,5.714,2.74,2.8,2.8,0,0,1,2.857,5.482,2.8,2.8,0,0,1,0,2.74Z" transform="translate(102.005 109.424)" fill="rgba(0,0,0,0.4)" />
    </g>
    <g id="Bottom_Standing_Sweatpants" data-name="Bottom/Standing/Sweatpants" transform="translate(39.005 202.132)">
      <path id="Leg" d="M0,0,26.225,87.579,38.56,153.334H50.94L38.582,0Z" transform="translate(31.501 0)" fill="#7581ce" />
      <path id="Leg-2" data-name="Leg" d="M17.879,0c1.83,45.5,1.108,70.312.7,74.445S15.844,106.263,0,154.722H12.877C33.859,108.234,41.184,80.55,43.59,74.445S53.1,43.526,63.481,0Z" transform="translate(1.835)" fill="#8d9dd5" />
      <path id="Pant" d="M0,0Q10.232,45.2,35.395,144.315H53.5C54.84,76.5,49.151,31.861,39.3,0Z" transform="translate(30.938 0)" fill="#3e4166" />
      <path id="Pant-2" data-name="Pant" d="M17.239,0C19.031,45.5,14.387,90.32,0,145.023H19.32C40.341,99.229,55.407,54.627,65.7,0Z" transform="translate(2.384)" fill="#5a5e90" />
      <g id="Left_Shoe" data-name="Left Shoe" transform="translate(0 138)">
        <path id="Shoe" d="M0,12.489.672,1.981a.7.7,0,0,1,.649-.648L16.341,0,42.1,9.267a1.378,1.378,0,0,1,.879,1.679l-1.06,3.623H1.421Z" transform="translate(0 13.183)" fill="#191847" />
      </g>
      <g id="Right_Shoe" data-name="Right Shoe" transform="translate(67 138)">
        <path id="Shoe-2" data-name="Shoe" d="M0,12.489.672,1.981a.7.7,0,0,1,.649-.648L16.341,0,42.1,9.267a1.378,1.378,0,0,1,.879,1.679l-1.06,3.623H1.421Z" transform="translate(0 13.183)" fill="#191847" />
      </g>
    </g>
  </g>
  <line id="Line_3" data-name="Line 3" y2="61.445" transform="translate(854.414 111.163)" fill="none" stroke="#c2cae3" stroke-width="4" />
  <line id="Line_5" data-name="Line 5" y2="61.445" transform="translate(928.23 172.609)" fill="none" stroke="#c2cae3" stroke-width="4" />
  <line id="Line_6" data-name="Line 6" x2="184.137" transform="translate(802.478 234.054)" fill="none" stroke="#c2cae3" stroke-width="4" />
  <line id="Line_7" data-name="Line 7" y2="61.445" transform="translate(967.632 111.163)" fill="none" stroke="#c2cae3" stroke-width="4" />
</svg>

